<mxfile host="drawio-plugin" modified="2024-01-11T18:26:03.980Z" agent="5.0 (Windows NT 6.2; Win64; x64) AppleWebKit/537.36 (KHTML, like Gecko) Chrome/104.0.5112.102 Safari/537.36" etag="o52d9p6kB0y5vXEbOYfg" version="20.5.3" type="embed"><diagram id="Imx-VFmB46g5U5UCNftq" name="Page-1"><mxGraphModel dx="660" dy="563" grid="1" gridSize="10" guides="1" tooltips="1" connect="1" arrows="1" fold="1" page="1" pageScale="1" pageWidth="850" pageHeight="1100" math="0" shadow="0"><root><mxCell id="0"/><mxCell id="1" parent="0"/><mxCell id="12" value="«interface»&lt;br&gt;&lt;b&gt;SortingStrategy&lt;/b&gt;" style="html=1;fillColor=#60a917;fontColor=#ffffff;strokeColor=#2D7600;" vertex="1" parent="1"><mxGeometry x="260" y="10" width="190" height="30" as="geometry"/></mxCell><mxCell id="13" value="&lt;p style=&quot;margin: 4px 0px 0px;&quot;&gt;+ method: sort(int[])&amp;nbsp; &amp;nbsp; &amp;nbsp; &amp;nbsp; &amp;nbsp; &amp;nbsp; &amp;nbsp; &amp;nbsp; &amp;nbsp;void&lt;br&gt;&lt;br&gt;&lt;/p&gt;" style="verticalAlign=top;align=left;overflow=fill;fontSize=12;fontFamily=Helvetica;html=1;fillColor=#6d8764;fontColor=#ffffff;strokeColor=#3A5431;" vertex="1" parent="1"><mxGeometry x="260" y="40" width="190" height="20" as="geometry"/></mxCell><mxCell id="14" value="SelectionSort" style="swimlane;fontStyle=1;align=center;verticalAlign=top;childLayout=stackLayout;horizontal=1;startSize=26;horizontalStack=0;resizeParent=1;resizeParentMax=0;resizeLast=0;collapsible=1;marginBottom=0;fillColor=#1ba1e2;fontColor=#ffffff;strokeColor=#006EAF;" vertex="1" parent="1"><mxGeometry x="30" y="110" width="180" height="46" as="geometry"/></mxCell><mxCell id="20" value="&lt;p style=&quot;margin: 4px 0px 0px;&quot;&gt;+ method: sort(int[])&amp;nbsp; &amp;nbsp; &amp;nbsp; &amp;nbsp; &amp;nbsp; &amp;nbsp; &amp;nbsp; &amp;nbsp; &amp;nbsp;void&lt;br&gt;&lt;br&gt;&lt;/p&gt;" style="verticalAlign=top;align=left;overflow=fill;fontSize=12;fontFamily=Helvetica;html=1;fillColor=#6d8764;fontColor=#ffffff;strokeColor=#3A5431;" vertex="1" parent="14"><mxGeometry y="26" width="180" height="20" as="geometry"/></mxCell><mxCell id="17" value="BubbleSort" style="swimlane;fontStyle=1;align=center;verticalAlign=top;childLayout=stackLayout;horizontal=1;startSize=26;horizontalStack=0;resizeParent=1;resizeParentMax=0;resizeLast=0;collapsible=1;marginBottom=0;fillColor=#1ba1e2;fontColor=#ffffff;strokeColor=#006EAF;" vertex="1" parent="1"><mxGeometry x="460" y="110" width="190" height="46" as="geometry"/></mxCell><mxCell id="21" value="&lt;p style=&quot;margin: 4px 0px 0px;&quot;&gt;+ method: sort(int[])&amp;nbsp; &amp;nbsp; &amp;nbsp; &amp;nbsp; &amp;nbsp; &amp;nbsp; &amp;nbsp; &amp;nbsp; &amp;nbsp;void&lt;br&gt;&lt;br&gt;&lt;/p&gt;" style="verticalAlign=top;align=left;overflow=fill;fontSize=12;fontFamily=Helvetica;html=1;fillColor=#6d8764;fontColor=#ffffff;strokeColor=#3A5431;" vertex="1" parent="17"><mxGeometry y="26" width="190" height="20" as="geometry"/></mxCell><mxCell id="22" value="" style="endArrow=block;dashed=1;endFill=0;endSize=12;html=1;rounded=0;fillColor=#60a917;strokeColor=#80FF00;entryX=0;entryY=0.5;entryDx=0;entryDy=0;" edge="1" parent="1" target="12"><mxGeometry width="160" relative="1" as="geometry"><mxPoint x="150.1400000000001" y="76" as="sourcePoint"/><mxPoint x="201.18000000000006" y="50" as="targetPoint"/><Array as="points"><mxPoint x="80" y="110"/><mxPoint x="150" y="76.39999999999998"/></Array></mxGeometry></mxCell><mxCell id="23" value="" style="endArrow=block;dashed=1;endFill=0;endSize=12;html=1;rounded=0;fillColor=#60a917;strokeColor=#80FF00;entryX=1;entryY=0.5;entryDx=0;entryDy=0;" edge="1" parent="1" target="12"><mxGeometry width="160" relative="1" as="geometry"><mxPoint x="530.1400000000001" y="106" as="sourcePoint"/><mxPoint x="460" y="30" as="targetPoint"/><Array as="points"><mxPoint x="530" y="106.39999999999998"/></Array></mxGeometry></mxCell><mxCell id="27" value="Sorter" style="swimlane;fontStyle=1;align=center;verticalAlign=top;childLayout=stackLayout;horizontal=1;startSize=26;horizontalStack=0;resizeParent=1;resizeParentMax=0;resizeLast=0;collapsible=1;marginBottom=0;fillColor=#1ba1e2;fontColor=#ffffff;strokeColor=#006EAF;" vertex="1" parent="1"><mxGeometry x="70" y="240" width="290" height="48" as="geometry"/></mxCell><mxCell id="28" value="+ field: sortingStrategy                       SortingStrategy" style="text;strokeColor=#432D57;fillColor=#76608a;align=left;verticalAlign=top;spacingLeft=4;spacingRight=4;overflow=hidden;rotatable=0;points=[[0,0.5],[1,0.5]];portConstraint=eastwest;fontColor=#ffffff;" vertex="1" parent="27"><mxGeometry y="26" width="290" height="22" as="geometry"/></mxCell><mxCell id="29" value="+ method: performSort(int[])                                void" style="text;strokeColor=#006EAF;fillColor=#6D8764;align=left;verticalAlign=top;spacingLeft=4;spacingRight=4;overflow=hidden;rotatable=0;points=[[0,0.5],[1,0.5]];portConstraint=eastwest;fontColor=#FFFFFF;" vertex="1" parent="1"><mxGeometry x="70" y="314" width="290" height="26" as="geometry"/></mxCell><mxCell id="30" value="+ method: setSortingStrategy(SortingStrategy)   void&#10;)   " style="text;strokeColor=#006EAF;fillColor=#6D8764;align=left;verticalAlign=top;spacingLeft=4;spacingRight=4;overflow=hidden;rotatable=0;points=[[0,0.5],[1,0.5]];portConstraint=eastwest;fontColor=#FFFFFF;" vertex="1" parent="1"><mxGeometry x="70" y="288" width="290" height="26" as="geometry"/></mxCell></root></mxGraphModel></diagram></mxfile>